/* XPM */
static char * freedcpp_xpm[] = {
"48 48 90 1",
" 	c None",
".	c #010500",
"+	c #000000",
"@	c #5BB344",
"#	c #91CC82",
"$	c #95CE86",
"%	c #8CC97C",
"&	c #8ECB7F",
"*	c #87C776",
"=	c #80C46E",
"-	c #78C065",
";	c #71BD5D",
">	c #6AB954",
",	c #63B64D",
"'	c #56B03E",
")	c #48AA2E",
"!	c #3AA31E",
"~	c #2C9D0E",
"{	c #33A017",
"]	c #39A31E",
"^	c #40A625",
"/	c #46A92C",
"(	c #4DAC34",
"_	c #50AD37",
":	c #4FAD36",
"<	c #4BAB31",
"[	c #45A82A",
"}	c #3FA624",
"|	c #34A118",
"1	c #249905",
"2	c #259906",
"3	c #279B09",
"4	c #2B9C0D",
"5	c #2D9D10",
"6	c #309F13",
"7	c #36A11A",
"8	c #39A31D",
"9	c #38A21C",
"0	c #37A21B",
"a	c #33A016",
"b	c #329F15",
"c	c #2F9E12",
"d	c #2E9E11",
"e	c #5AB243",
"f	c #5EB448",
"g	c #65B750",
"h	c #7AC167",
"i	c #6EBB59",
"j	c #404040",
"k	c #7F7F7F",
"l	c #848484",
"m	c #797979",
"n	c #7C7C7C",
"o	c #737373",
"p	c #6B6B6B",
"q	c #626262",
"r	c #5A5A5A",
"s	c #515151",
"t	c #494949",
"u	c #3A3A3A",
"v	c #2A2A2A",
"w	c #1A1A1A",
"x	c #090909",
"y	c #121212",
"z	c #191919",
"A	c #212121",
"B	c #282828",
"C	c #303030",
"D	c #333333",
"E	c #323232",
"F	c #2D2D2D",
"G	c #262626",
"H	c #202020",
"I	c #131313",
"J	c #0F0F0F",
"K	c #141414",
"L	c #181818",
"M	c #1D1D1D",
"N	c #2F2F2F",
"O	c #383838",
"P	c #3B3B3B",
"Q	c #393939",
"R	c #373737",
"S	c #353535",
"T	c #343434",
"U	c #2C2C2C",
"V	c #535353",
"W	c #696969",
"X	c #7A7A7A",
"Y	c #7E7E7E",
"                         .+++++++++++++++++++++.",
"                         +@#$$$$$$$$$$$$$$$$$#@+",
"                         +%&&&&&&&&&&&&&&&&&&&%+",
"                         +*********************+",
"                         +=====================+",
"                         +---------------------+",
"                         +;;;;;;;;;;;;;;;;;;;;;+",
"                         +>>>>>>>>>>>>>>>>>>>>>+",
"                         +,,,,,,,,,,,,,,,,,,,,,+",
"                         +@@@@@@@@@@@@@@@@@')!~+",
"                         +{]^/(_____:<[}!|~1111+",
"                         +111111111111111111111+",
"                         +111111111111111111111+",
"                         +111111111111111111111+",
"                         +111111111111111111111+",
"                         +111111111111111111111+",
"                         +111111111111111111111+",
"                         +111111111111111111111+",
"                         +11123456{78907|{ab6cd+",
"                         +ef,gggggggggggggggggg+",
"                         +hhhhhhhhhhhhhhhhhhhhh+",
"                         +i%&&&&&&&&&&&&&&&&&%i+",
"                         .+++++++++++++++++++++.",
"                                                ",
"                                                ",
".+++++++++++++++++++++.  +++++++++++++++++++++++",
"+@#$$$$$$$$$$$$$$$$$#@+  +jklllllllllllllllllkj+",
"+%&&&&&&&&&&&&&&&&&&&%+  +mnnnnnnnnnnnnnnnnnnnm+",
"+*********************+  +ooooooooooooooooooooo+",
"+=====================+  +ppppppppppppppppppppp+",
"+---------------------+  +qqqqqqqqqqqqqqqqqqqqq+",
"+;;;;;;;;;;;;;;;;;;;;;+  +rrrrrrrrrrrrrrrrrrrrr+",
"+>>>>>>>>>>>>>>>>>>>>>+  +sssssssssssssssssssss+",
"+,,,,,,,,,,,,,,,,,,,,,+  +ttttttttttttttttttttt+",
"+@@@@@@@@@@@@@@@@@')!~+  +jjjjjjjjjjjjjjjjjuvwx+",
"+{]^/(_____:<[}!|~1111+  +yzABCDDDDDEFGHwIx+++++",
"+111111111111111111111+  +++++++++++++++++++++++",
"+111111111111111111111+  +++++++++++++++++++++++",
"+111111111111111111111+  +++++++++++++++++++++++",
"+111111111111111111111+  +++++++++++++++++++++++",
"+111111111111111111111+  +++++++++++++++++++++++",
"+111111111111111111111+  +++++++++++++++++++++++",
"+111111111111111111111+  +++++++++++++++++++++++",
"+11123456{78907|{ab6cd+  +JKLMAGvNDOPuQRSTECNFU+",
"+ef,gggggggggggggggggg+  +VVVVVVVVVVVVVVVVVVVVV+",
"+hhhhhhhhhhhhhhhhhhhhh+  +WWWWWWWWWWWWWWWWWWWWW+",
"+i%&&&&&&&&&&&&&&&&&%i+  +VXYYYYYYYYYYYYYYYYYXV+",
".+++++++++++++++++++++.  +++++++++++++++++++++++"};
