<?xml version="1.0" encoding="UTF-8" standalone="no"?>
<!-- Created with Inkscape (http://www.inkscape.org/) -->
<svg
   xmlns:dc="http://purl.org/dc/elements/1.1/"
   xmlns:cc="http://web.resource.org/cc/"
   xmlns:rdf="http://www.w3.org/1999/02/22-rdf-syntax-ns#"
   xmlns:svg="http://www.w3.org/2000/svg"
   xmlns="http://www.w3.org/2000/svg"
   xmlns:xlink="http://www.w3.org/1999/xlink"
   xmlns:sodipodi="http://sodipodi.sourceforge.net/DTD/sodipodi-0.dtd"
   xmlns:inkscape="http://www.inkscape.org/namespaces/inkscape"
   width="96"
   height="96"
   id="svg2026"
   sodipodi:version="0.32"
   inkscape:version="0.44"
   version="1.0"
   inkscape:export-filename="/home/void/dcpp_pixmaps/FinishedDL.png"
   inkscape:export-xdpi="90"
   inkscape:export-ydpi="90"
   sodipodi:docbase="/home/void/ldcpp_svg"
   sodipodi:docname="FinishedDL.svg">
  <defs
     id="defs2028">
    <linearGradient
       inkscape:collect="always"
       id="linearGradient8582">
      <stop
         style="stop-color:#c9f4ab;stop-opacity:1;"
         offset="0"
         id="stop8584" />
      <stop
         style="stop-color:#c9f4ab;stop-opacity:0;"
         offset="1"
         id="stop8586" />
    </linearGradient>
    <linearGradient
       inkscape:collect="always"
       id="linearGradient2694">
      <stop
         style="stop-color:#000000;stop-opacity:1;"
         offset="0"
         id="stop2696" />
      <stop
         style="stop-color:#000000;stop-opacity:0;"
         offset="1"
         id="stop2698" />
    </linearGradient>
    <linearGradient
       inkscape:collect="always"
       id="linearGradient2963">
      <stop
         style="stop-color:#ffffff;stop-opacity:1;"
         offset="0"
         id="stop2965" />
      <stop
         style="stop-color:#ffffff;stop-opacity:0;"
         offset="1"
         id="stop2967" />
    </linearGradient>
    <linearGradient
       inkscape:collect="always"
       xlink:href="#linearGradient3012"
       id="linearGradient2286"
       gradientUnits="userSpaceOnUse"
       gradientTransform="matrix(1.189866,0,0,1.189677,-7.516981,-4.68647)"
       x1="10.108139"
       y1="12.783691"
       x2="14.732678"
       y2="12.783691"
       spreadMethod="reflect" />
    <linearGradient
       inkscape:collect="always"
       id="linearGradient3743">
      <stop
         style="stop-color:#000000;stop-opacity:1;"
         offset="0"
         id="stop3745" />
      <stop
         style="stop-color:#000000;stop-opacity:0;"
         offset="1"
         id="stop3747" />
    </linearGradient>
    <linearGradient
       inkscape:collect="always"
       id="linearGradient3733">
      <stop
         style="stop-color:#000000;stop-opacity:1;"
         offset="0"
         id="stop3735" />
      <stop
         style="stop-color:#000000;stop-opacity:0;"
         offset="1"
         id="stop3737" />
    </linearGradient>
    <radialGradient
       inkscape:collect="always"
       xlink:href="#linearGradient4900"
       id="radialGradient6321"
       gradientUnits="userSpaceOnUse"
       gradientTransform="matrix(0.140191,0,0,3.467823e-2,-158.9206,-19.9118)"
       cx="1059.9259"
       cy="60.91605"
       fx="1059.9259"
       fy="60.91605"
       r="59.479008" />
    <linearGradient
       id="linearGradient3019">
      <stop
         style="stop-color:#ffffff;stop-opacity:1;"
         offset="0"
         id="stop3021" />
      <stop
         id="stop2485"
         offset="0.25"
         style="stop-color:#ffffff;stop-opacity:0.65490198;" />
      <stop
         id="stop2477"
         offset="0.5"
         style="stop-color:#000000;stop-opacity:0.29896906;" />
      <stop
         style="stop-color:#ffffff;stop-opacity:0.24705882;"
         offset="0.75"
         id="stop2481" />
      <stop
         id="stop2483"
         offset="0.875"
         style="stop-color:#ffffff;stop-opacity:1;" />
      <stop
         style="stop-color:#ffffff;stop-opacity:1;"
         offset="1"
         id="stop3023" />
    </linearGradient>
    <linearGradient
       inkscape:collect="always"
       xlink:href="#linearGradient3019"
       id="linearGradient6323"
       gradientUnits="userSpaceOnUse"
       gradientTransform="matrix(1.91186e-2,-0.177887,-0.180489,-2.700197e-4,20.83249,22.24678)"
       spreadMethod="reflect"
       x1="-86.469414"
       y1="59.117023"
       x2="152.71753"
       y2="62.137997" />
    <linearGradient
       inkscape:collect="always"
       id="linearGradient3031">
      <stop
         style="stop-color:#000000;stop-opacity:1;"
         offset="0"
         id="stop3033" />
      <stop
         style="stop-color:#000000;stop-opacity:0;"
         offset="1"
         id="stop3035" />
    </linearGradient>
    <linearGradient
       inkscape:collect="always"
       xlink:href="#linearGradient3031"
       id="linearGradient6325"
       gradientUnits="userSpaceOnUse"
       gradientTransform="matrix(-1.369896e-2,-0.234664,-0.172042,-1.137148e-3,21.97012,27.75445)"
       x1="61.33279"
       y1="74.088112"
       x2="96.82074"
       y2="73.013199" />
    <linearGradient
       inkscape:collect="always"
       id="linearGradient3150">
      <stop
         style="stop-color:#ffffff;stop-opacity:1;"
         offset="0"
         id="stop3152" />
      <stop
         style="stop-color:#ffffff;stop-opacity:0;"
         offset="1"
         id="stop3154" />
    </linearGradient>
    <linearGradient
       inkscape:collect="always"
       xlink:href="#linearGradient3150"
       id="linearGradient6327"
       gradientUnits="userSpaceOnUse"
       gradientTransform="matrix(-0.19376,-1.492815e-3,-3.361656e-3,0.25488,41.0169,-5.690754)"
       x1="64.759377"
       y1="6.4954252"
       x2="65.223053"
       y2="30.935276" />
    <linearGradient
       id="linearGradient2683">
      <stop
         style="stop-color:#ffffff;stop-opacity:1;"
         offset="0"
         id="stop2685" />
      <stop
         style="stop-color:#ffffff;stop-opacity:0;"
         offset="1"
         id="stop2687" />
    </linearGradient>
    <linearGradient
       inkscape:collect="always"
       xlink:href="#linearGradient2683"
       id="linearGradient6329"
       gradientUnits="userSpaceOnUse"
       gradientTransform="matrix(9.639045e-3,-0.221663,-0.151151,2.009705e-3,76.4258,14.56862)"
       x1="110.72213"
       y1="380.90686"
       x2="25.044636"
       y2="424.19559" />
    <linearGradient
       inkscape:collect="always"
       xlink:href="#linearGradient2814"
       id="linearGradient6331"
       gradientUnits="userSpaceOnUse"
       gradientTransform="matrix(7.877002e-3,-0.166685,-0.150321,1.461963e-3,81.0278,45.16368)"
       x1="138.3201"
       y1="483.37943"
       x2="181.49837"
       y2="484.25775" />
    <linearGradient
       inkscape:collect="always"
       id="linearGradient2814">
      <stop
         style="stop-color:#ffffff;stop-opacity:1;"
         offset="0"
         id="stop2816" />
      <stop
         style="stop-color:#ffffff;stop-opacity:0;"
         offset="1"
         id="stop2818" />
    </linearGradient>
    <linearGradient
       inkscape:collect="always"
       xlink:href="#linearGradient2814"
       id="linearGradient6333"
       gradientUnits="userSpaceOnUse"
       gradientTransform="matrix(7.121993e-3,-0.151621,-0.103865,1.048699e-3,56.09295,41.8256)"
       x1="180.40201"
       y1="500.82196"
       x2="210.2531"
       y2="485.39716" />
    <radialGradient
       inkscape:collect="always"
       xlink:href="#linearGradient4900"
       id="radialGradient2256"
       gradientUnits="userSpaceOnUse"
       gradientTransform="matrix(0.140068,0,0,5.240479e-2,-138.8925,13.93733)"
       cx="1059.9259"
       cy="60.91605"
       fx="1059.9259"
       fy="60.91605"
       r="59.479008" />
    <linearGradient
       inkscape:collect="always"
       xlink:href="#linearGradient4242"
       id="linearGradient2258"
       gradientUnits="userSpaceOnUse"
       x1="390.39026"
       y1="1120.9124"
       x2="465.5636"
       y2="1253.4203" />
    <radialGradient
       inkscape:collect="always"
       xlink:href="#linearGradient4234"
       id="radialGradient2260"
       gradientUnits="userSpaceOnUse"
       cx="342.12119"
       cy="1181.5369"
       fx="342.12119"
       fy="1181.5369"
       r="109.99036" />
    <linearGradient
       inkscape:collect="always"
       xlink:href="#linearGradient3012"
       id="linearGradient2262"
       gradientUnits="userSpaceOnUse"
       gradientTransform="matrix(0.927007,0,0,0.927007,28.26143,3.270183)"
       x1="12.936634"
       y1="13.365853"
       x2="14.732681"
       y2="12.783695" />
    <linearGradient
       inkscape:collect="always"
       id="linearGradient4667">
      <stop
         style="stop-color:#ffffff;stop-opacity:1;"
         offset="0"
         id="stop4669" />
      <stop
         style="stop-color:#ffffff;stop-opacity:0;"
         offset="1"
         id="stop4671" />
    </linearGradient>
    <linearGradient
       inkscape:collect="always"
       xlink:href="#linearGradient4667"
       id="linearGradient4673"
       x1="-1.0814776"
       y1="1.9097753"
       x2="5.5923519"
       y2="5.9303746"
       gradientUnits="userSpaceOnUse"
       spreadMethod="repeat" />
    <linearGradient
       inkscape:collect="always"
       id="linearGradient4679">
      <stop
         style="stop-color:#ffffff;stop-opacity:1;"
         offset="0"
         id="stop4681" />
      <stop
         style="stop-color:#ffffff;stop-opacity:0;"
         offset="1"
         id="stop4683" />
    </linearGradient>
    <linearGradient
       inkscape:collect="always"
       xlink:href="#linearGradient4679"
       id="linearGradient4685"
       x1="4.4736943"
       y1="2.8268745"
       x2="4.0743012"
       y2="1.3999547"
       gradientUnits="userSpaceOnUse" />
    <linearGradient
       inkscape:collect="always"
       id="linearGradient3012">
      <stop
         style="stop-color:#ffffff;stop-opacity:1;"
         offset="0"
         id="stop3014" />
      <stop
         style="stop-color:#ffffff;stop-opacity:0;"
         offset="1"
         id="stop3016" />
    </linearGradient>
    <linearGradient
       inkscape:collect="always"
       id="linearGradient2993">
      <stop
         style="stop-color:#ffffff;stop-opacity:1;"
         offset="0"
         id="stop2995" />
      <stop
         style="stop-color:#ffffff;stop-opacity:0;"
         offset="1"
         id="stop2997" />
    </linearGradient>
    <radialGradient
       inkscape:collect="always"
       xlink:href="#linearGradient4900"
       id="radialGradient3801"
       gradientUnits="userSpaceOnUse"
       gradientTransform="matrix(0.562484,0,0,0.210446,-561.5418,52.36166)"
       cx="1059.9259"
       cy="60.91605"
       fx="1059.9259"
       fy="60.91605"
       r="59.479008" />
    <linearGradient
       inkscape:collect="always"
       id="linearGradient4242">
      <stop
         style="stop-color:#ffffff;stop-opacity:1;"
         offset="0"
         id="stop4244" />
      <stop
         style="stop-color:#ffffff;stop-opacity:0;"
         offset="1"
         id="stop4246" />
    </linearGradient>
    <linearGradient
       inkscape:collect="always"
       xlink:href="#linearGradient4242"
       id="linearGradient4248"
       x1="390.39026"
       y1="1120.9124"
       x2="465.5636"
       y2="1253.4203"
       gradientUnits="userSpaceOnUse" />
    <linearGradient
       inkscape:collect="always"
       id="linearGradient4234">
      <stop
         style="stop-color:#ffffff;stop-opacity:1;"
         offset="0"
         id="stop4236" />
      <stop
         style="stop-color:#ffffff;stop-opacity:0;"
         offset="1"
         id="stop4238" />
    </linearGradient>
    <radialGradient
       inkscape:collect="always"
       xlink:href="#linearGradient4234"
       id="radialGradient3846"
       cx="342.12119"
       cy="1181.5369"
       fx="342.12119"
       fy="1181.5369"
       r="109.99036"
       gradientUnits="userSpaceOnUse" />
    <linearGradient
       inkscape:collect="always"
       id="linearGradient4900">
      <stop
         style="stop-color:#000000;stop-opacity:1;"
         offset="0"
         id="stop4902" />
      <stop
         style="stop-color:#000000;stop-opacity:0;"
         offset="1"
         id="stop4904" />
    </linearGradient>
    <linearGradient
       inkscape:collect="always"
       xlink:href="#linearGradient2993"
       id="linearGradient2999"
       x1="6.2435646"
       y1="4.7686954"
       x2="8.1368704"
       y2="6.9310718"
       gradientUnits="userSpaceOnUse" />
    <linearGradient
       inkscape:collect="always"
       xlink:href="#linearGradient3012"
       id="linearGradient3018"
       x1="12.936634"
       y1="13.365853"
       x2="14.732681"
       y2="12.783695"
       gradientUnits="userSpaceOnUse"
       gradientTransform="matrix(0.905083,0,0,-0.905083,-0.335587,23.70696)" />
    <linearGradient
       inkscape:collect="always"
       xlink:href="#linearGradient3012"
       id="linearGradient4402"
       gradientUnits="userSpaceOnUse"
       gradientTransform="matrix(0.905083,0,0,-0.905083,-0.592111,23.6152)"
       x1="12.936634"
       y1="13.365853"
       x2="14.732681"
       y2="12.783695" />
    <linearGradient
       inkscape:collect="always"
       xlink:href="#linearGradient4667"
       id="linearGradient2476"
       gradientUnits="userSpaceOnUse"
       spreadMethod="repeat"
       x1="-1.0814776"
       y1="1.9097753"
       x2="5.5923519"
       y2="5.9303746" />
    <linearGradient
       inkscape:collect="always"
       xlink:href="#linearGradient4679"
       id="linearGradient2478"
       gradientUnits="userSpaceOnUse"
       x1="4.2517347"
       y1="1.9836402"
       x2="3.5987213"
       y2="0.59739709" />
    <linearGradient
       inkscape:collect="always"
       xlink:href="#linearGradient3031"
       id="linearGradient3676"
       gradientUnits="userSpaceOnUse"
       gradientTransform="matrix(-1.340481e-2,-0.248579,-0.168348,-1.204574e-3,21.60135,29.40044)"
       x1="61.33279"
       y1="74.088112"
       x2="96.82074"
       y2="73.013199" />
    <linearGradient
       inkscape:collect="always"
       xlink:href="#linearGradient3150"
       id="linearGradient3678"
       gradientUnits="userSpaceOnUse"
       gradientTransform="matrix(-0.181996,-1.171929e-3,-3.157555e-3,0.200093,21.26333,-0.922152)"
       x1="64.567307"
       y1="17.566042"
       x2="64.937248"
       y2="33.659428" />
    <linearGradient
       inkscape:collect="always"
       xlink:href="#linearGradient3733"
       id="linearGradient3739"
       x1="9.645155"
       y1="17"
       x2="9.6540394"
       y2="19"
       gradientUnits="userSpaceOnUse"
       gradientTransform="matrix(0.763801,0,0,1.427397,2.25158,-7.048383)" />
    <radialGradient
       inkscape:collect="always"
       xlink:href="#linearGradient3743"
       id="radialGradient3749"
       cx="3.3365793"
       cy="17.519932"
       fx="3.3365793"
       fy="17.519932"
       r="1"
       gradientUnits="userSpaceOnUse"
       gradientTransform="matrix(2.024072,0,0,2.973355,-3.311436,-34.87565)" />
    <radialGradient
       inkscape:collect="always"
       xlink:href="#linearGradient3743"
       id="radialGradient3753"
       gradientUnits="userSpaceOnUse"
       gradientTransform="matrix(2.024072,0,0,2.973355,-23.09062,-34.87565)"
       cx="3.3365793"
       cy="17.519932"
       fx="3.3365793"
       fy="17.519932"
       r="1" />
    <linearGradient
       inkscape:collect="always"
       xlink:href="#linearGradient2963"
       id="linearGradient2969"
       x1="9.5789518"
       y1="9.5"
       x2="13.177423"
       y2="9.5"
       gradientUnits="userSpaceOnUse" />
    <radialGradient
       inkscape:collect="always"
       xlink:href="#linearGradient2694"
       id="radialGradient2700"
       cx="12.343565"
       cy="20.918812"
       fx="12.343565"
       fy="20.918812"
       r="8.8297033"
       gradientTransform="matrix(1,0,0,0.255102,0,15.58238)"
       gradientUnits="userSpaceOnUse" />
    <linearGradient
       inkscape:collect="always"
       xlink:href="#linearGradient8582"
       id="linearGradient8588"
       x1="14.191439"
       y1="7.9079924"
       x2="14.181968"
       y2="17.999083"
       gradientUnits="userSpaceOnUse"
       gradientTransform="matrix(4.199898,0,0,4.199898,-0.785695,1.264891)" />
  </defs>
  <sodipodi:namedview
     id="base"
     pagecolor="#ffffff"
     bordercolor="#666666"
     borderopacity="1.0"
     inkscape:pageopacity="0.0"
     inkscape:pageshadow="2"
     inkscape:zoom="2.7747252"
     inkscape:cx="106.56505"
     inkscape:cy="37.474481"
     inkscape:current-layer="layer1"
     showgrid="true"
     inkscape:grid-bbox="true"
     inkscape:document-units="px"
     inkscape:window-width="874"
     inkscape:window-height="620"
     inkscape:window-x="312"
     inkscape:window-y="343"
     showguides="true"
     inkscape:guide-bbox="true"
     width="96px"
     height="96px" />
  <metadata
     id="metadata2031">
    <rdf:RDF>
      <cc:Work
         rdf:about="">
        <dc:format>image/svg+xml</dc:format>
        <dc:type
           rdf:resource="http://purl.org/dc/dcmitype/StillImage" />
      </cc:Work>
    </rdf:RDF>
  </metadata>
  <g
     id="layer1"
     inkscape:label="Layer 1"
     inkscape:groupmode="layer">
    <path
       sodipodi:type="arc"
       style="opacity:0.71739131;fill:url(#radialGradient2700);fill-opacity:1;stroke:none;stroke-width:1.15750003;stroke-linejoin:bevel;stroke-miterlimit:4;stroke-dasharray:none;stroke-opacity:1"
       id="path2692"
       sodipodi:cx="12.343565"
       sodipodi:cy="20.918812"
       sodipodi:rx="8.8297033"
       sodipodi:ry="2.2524753"
       d="M 21.173268 20.918812 A 8.8297033 2.2524753 0 1 1  3.5138617,20.918812 A 8.8297033 2.2524753 0 1 1  21.173268 20.918812 z"
       transform="matrix(4.199898,0,0,4.199898,-7.218607,-4.312171)" />
    <rect
       style="opacity:0.52970294;fill:url(#radialGradient3801);fill-opacity:1;stroke:none;stroke-width:0.62900001;stroke-miterlimit:4;stroke-dasharray:none;stroke-dashoffset:0;stroke-opacity:1"
       id="rect3799"
       width="70.012863"
       height="25.748844"
       x="9.7290535"
       y="67.805481"
       ry="3.3957546"
       rx="3.3957546" />
    <path
       sodipodi:type="arc"
       style="opacity:1;fill:#3a8ad2;fill-opacity:1;stroke:#000051;stroke-width:8.72621536;stroke-miterlimit:4;stroke-dasharray:none;stroke-dashoffset:0;stroke-opacity:1"
       id="path4220"
       sodipodi:cx="342.12119"
       sodipodi:cy="1181.5369"
       sodipodi:rx="109.99036"
       sodipodi:ry="109.99036"
       d="M 452.11154 1181.5369 A 109.99036 109.99036 0 1 1  232.13083,1181.5369 A 109.99036 109.99036 0 1 1  452.11154 1181.5369 z"
       transform="matrix(0.385037,0,0,0.385037,-87.45352,-410.2063)" />
    <path
       sodipodi:type="arc"
       style="opacity:0.58730164;fill:url(#linearGradient4248);fill-opacity:1;stroke:none;stroke-width:3.5;stroke-miterlimit:4;stroke-dasharray:none;stroke-dashoffset:0;stroke-opacity:1"
       id="path4222"
       sodipodi:cx="342.12119"
       sodipodi:cy="1181.5369"
       sodipodi:rx="109.99036"
       sodipodi:ry="109.99036"
       d="M 452.11154 1181.5369 A 109.99036 109.99036 0 1 1  232.13083,1181.5369 A 109.99036 109.99036 0 1 1  452.11154 1181.5369 z"
       transform="matrix(0.338736,0,0,0.309493,-72.86279,-327.1267)" />
    <path
       style="opacity:1;fill:white;fill-opacity:0.79428573;fill-rule:evenodd;stroke:black;stroke-width:1.96185565;stroke-linecap:butt;stroke-linejoin:miter;stroke-miterlimit:4;stroke-dasharray:none;stroke-opacity:1"
       d="M 56.85708,5.3039359 C 55.7543,5.9841009 54.872389,7.6093522 53.244946,7.0784095 C 51.728014,6.8378083 50.271368,6.3356908 48.714994,6.361765 C 46.918593,6.2006481 46.190557,8.7388958 44.234917,8.2640734 C 43.31417,8.2218275 40.894585,9.5980798 42.356912,10.426074 C 41.513933,12.093231 39.980959,12.953765 38.139705,13.102755 C 37.725433,13.421399 35.96001,13.933708 37.076262,12.881344 C 38.284864,12.159009 37.604635,10.457984 38.390069,9.6173841 C 37.196864,9.4178761 36.666439,10.678257 36.656922,11.658534 C 36.494046,11.954537 35.565209,12.37389 35.386043,12.024372 C 35.436584,11.661707 36.411915,11.022824 35.732652,10.791988 C 34.843337,10.697847 33.836718,11.293704 33.518102,12.101447 C 33.787017,12.684776 34.752975,12.580791 35.289711,12.448069 C 35.501498,12.824018 34.944159,13.725806 35.692603,13.709656 C 37.41819,13.356616 34.783125,14.850399 34.290529,14.260838 C 32.997711,13.963115 35.348207,15.527399 34.115074,16.049058 C 33.440862,16.60303 32.752202,17.869625 31.73251,17.585347 C 31.234378,17.50367 30.829237,16.494027 30.321493,16.896359 C 30.29415,17.661149 30.114924,18.178302 29.223879,18.302125 C 29.128419,18.936643 27.720306,18.966985 27.933676,19.592275 C 27.891816,19.938929 27.228235,20.146645 27.56783,20.555123 C 28.266038,22.02375 29.907911,22.544879 31.114763,21.189082 C 32.621974,20.963729 32.813529,18.655007 34.545701,19.032976 C 35.517185,18.91978 35.89251,16.802772 37.00354,18.148054 C 37.897076,18.115744 39.413324,16.335777 39.529625,18.27656 C 39.47801,19.726338 42.947598,20.457154 41.373594,21.584773 C 40.501971,22.03877 40.01241,22.728043 41.425118,22.298121 C 42.351305,22.066009 42.749439,21.187613 43.069374,20.420273 C 42.392535,19.633489 41.113273,18.824803 41.27853,17.608823 C 42.028803,16.690908 42.322851,18.443596 42.970286,18.618748 C 45.291078,19.001554 43.368382,21.241577 44.261515,22.397761 C 44.78082,22.945654 45.907527,23.71368 46.516331,22.904352 C 46.780853,22.273766 45.527659,21.773925 45.90013,21.248347 C 47.051016,21.129557 48.412132,20.984386 49.539599,21.363817 C 49.709203,21.736667 48.890513,21.423685 48.788598,21.748967 C 48.078239,23.763099 50.470627,24.098232 51.751618,24.743653 C 52.789151,25.107804 53.605184,23.460357 54.565604,24.310109 C 54.914938,25.796021 53.793851,26.947048 53.371115,28.138137 C 52.516755,29.977719 50.216349,28.518564 48.711575,28.565866 C 47.398226,27.774408 46.062746,27.016557 44.55051,26.631211 C 43.19021,25.915751 43.535992,27.929642 42.607196,28.026639 C 40.875358,28.22507 39.512437,26.666638 38.659738,25.436387 C 38.145492,25.0673 36.887802,25.674615 36.695478,24.945646 C 36.916454,24.119435 38.469795,23.114964 37.033498,22.467234 C 35.429244,21.892386 33.698191,22.408844 32.035321,22.249654 C 30.335218,22.512889 28.375175,22.009997 27.079499,23.343888 C 26.099941,24.539868 24.876131,25.687157 23.427642,26.274336 C 21.952063,26.63517 21.025208,27.864522 19.809679,28.653234 C 18.712002,29.678599 17.705936,31.041921 17.946781,32.642183 C 18.089282,33.994184 16.800798,35.034316 16.799858,36.439535 C 16.333711,37.989823 17.287206,39.368807 17.390593,40.889574 C 17.801009,42.743153 19.049733,44.280022 20.349272,45.59855 C 21.757547,45.824626 23.224782,46.069669 24.679334,46.108514 C 25.857625,46.424956 27.429586,45.216859 28.220552,46.55585 C 29.086285,47.479395 29.087494,49.164662 30.810277,48.587369 C 32.312661,48.680032 31.933822,50.983688 31.490867,51.913101 C 30.366481,53.155372 32.063971,54.559956 32.478262,55.794634 C 32.695385,57.334253 33.992938,58.393963 33.999513,59.893759 C 34.1993,61.332964 34.244685,62.617191 32.992609,63.656779 C 33.122977,64.537464 33.369446,65.323135 32.65161,66.01991 C 33.504585,66.514168 34.098086,67.302723 34.629135,68.180825 C 35.459841,69.36237 34.868116,71.163689 36.420421,71.947735 C 37.609995,72.472856 37.555714,73.960502 38.593843,74.543427 C 40.081807,74.960758 41.223124,76.111757 42.863445,75.397934 C 44.550791,75.284617 46.201057,74.151375 47.516205,73.046449 C 48.017056,72.275738 48.103741,71.184215 49.405819,71.602067 C 51.015426,71.859877 50.867887,70.121955 50.579434,69.100897 C 51.128097,67.433101 53.538032,67.996668 54.491937,66.561988 C 55.744364,65.371199 56.031065,63.316776 55.354227,61.768934 C 54.428956,60.578435 55.625721,58.784688 56.051733,57.61697 C 57.377179,56.772744 57.987252,55.079672 59.495263,54.485177 C 61.057075,53.813215 62.385548,52.623711 63.367728,51.232259 C 64.78508,50.008044 65.19754,48.158846 65.417703,46.383755 C 65.403419,46.123726 65.727748,45.246174 65.195247,45.376816 C 63.786832,46.63007 61.756828,46.444376 60.034454,46.224129 C 59.250039,45.702002 60.7132,44.55811 59.501504,44.238741 C 58.001578,43.59918 57.444381,41.979867 56.534167,40.747506 C 55.706925,39.559413 55.122489,38.099969 55.030981,36.634067 C 54.60197,35.361791 53.482193,34.378241 53.38563,32.903851 C 52.892486,32.287167 52.585259,30.188279 52.716586,30.336979 C 53.217096,31.471767 53.913838,31.081301 54.103421,30.164096 C 54.052627,31.325885 54.627178,32.352733 55.110721,33.375874 C 55.668661,34.900157 57.114668,35.828702 57.293559,37.552521 C 58.508178,38.841346 58.800844,40.5505 59.649294,42.045529 C 60.008705,43.105948 59.487325,45.44777 61.423831,44.360874 C 62.694124,43.092492 64.589693,43.136154 66.118309,42.334983 C 67.904219,42.030932 67.679326,39.347411 69.512255,39.146265 C 70.549411,38.899587 71.56529,36.708551 70.682195,35.903066 C 69.528953,35.534526 68.638373,34.525581 68.122172,33.591851 C 67.458928,34.628682 65.245499,35.386287 65.211782,33.475573 C 65.250665,31.927185 62.483159,31.791202 63.34654,30.106329 C 64.773556,29.33872 64.497299,31.718914 65.730515,31.863571 C 66.593918,33.056082 68.061416,32.843357 69.239105,32.532709 C 69.182122,33.597614 70.30924,33.336222 70.972152,33.439737 C 72.248286,33.751117 74.137548,33.237823 74.925746,34.468079 C 75.083638,36.201982 77.499091,35.903842 77.904574,37.597225 C 78.51424,36.278252 78.266975,38.528677 78.407197,38.900932 C 78.48201,40.278952 78.399343,41.758446 79.425816,42.834975 C 79.857804,43.894949 80.269012,45.052693 80.446415,46.147129 C 81.468596,45.150244 81.847015,43.614682 81.607612,42.196591 C 81.555293,40.669218 81.538956,39.115673 82.141011,37.712771 C 82.468125,36.912843 82.422198,35.013362 83.257861,34.727936 C 84.054686,35.202693 83.9911,36.787634 84.991008,36.78839 C 84.683516,35.323738 84.443521,33.83626 83.762289,32.488836 C 83.302006,31.092336 82.843239,29.696851 82.441354,28.282669 C 81.6787,26.873122 81.423202,25.246702 80.534458,23.894676 C 80.064359,22.473976 79.23719,21.273703 78.298349,20.13426 C 76.934452,18.347992 75.528121,16.576695 73.802072,15.113734 C 72.028867,13.670144 70.335006,12.089371 68.346287,10.945881 C 67.284503,9.8670134 65.914307,9.2019114 64.713753,8.3079216 C 63.439732,7.5594444 62.197637,6.7878476 60.729529,6.4700425 C 59.36998,6.2850597 58.154862,5.6070551 56.85708,5.3039359 z M 48.846371,8.2886139 C 49.820244,8.3220013 49.483551,9.6453455 48.557544,9.5210739 C 48.360964,10.150559 50.474454,11.173661 48.673739,11.215585 C 47.836102,11.342817 47.117538,11.07892 46.783797,11.97162 C 45.994687,12.603998 43.793307,13.254647 43.550779,11.928222 C 44.909878,11.510753 42.668137,10.474492 43.37752,10.59946 C 44.796956,10.372488 43.444773,13.007034 45.286714,12.204331 C 46.681055,11.256257 46.216383,8.9110081 48.245677,8.5223847 C 48.451157,8.4562889 48.630539,8.3226716 48.846371,8.2886139 z M 42.510952,10.36838 C 43.122843,10.339225 43.314467,10.856835 42.510952,10.36838 z M 50.694998,17.782201 C 51.824696,17.561779 52.545003,18.061675 53.013321,19.022615 C 54.424092,19.163032 55.892876,19.301669 57.180775,19.994841 C 58.052829,20.631242 58.806396,21.26264 57.401362,21.716045 C 55.763725,22.182471 54.48841,20.744202 53.023703,20.33083 C 51.862948,20.053492 50.447108,20.859278 49.501043,19.91959 C 49.859114,19.224766 50.092502,18.304943 50.694998,17.782201 z M 60.997273,17.782201 C 61.924803,17.838165 63.851712,17.738803 62.413755,18.89599 C 61.995298,20.788203 65.071317,20.649141 64.495792,22.729805 C 64.494758,23.721885 65.862661,23.792928 66.042501,24.50265 C 65.622091,25.714074 63.642872,25.34014 62.886613,24.692242 C 61.320076,23.846989 63.338951,22.143321 61.998637,21.055742 C 62.186616,19.546965 60.088103,20.179205 59.976668,18.937582 C 60.137247,18.457314 60.458702,17.898482 60.997273,17.782201 z M 63.076944,17.994045 C 63.136205,17.984063 63.06702,18.05319 63.076944,17.994045 z M 61.78674,64.190536 C 60.532449,65.096303 59.308914,66.21382 57.646636,66.154757 C 56.610911,67.041834 57.752431,68.960999 56.516187,69.627526 C 55.93905,69.88173 55.915034,71.284487 56.317885,71.777668 C 58.383671,71.868865 58.928957,69.545604 60.00369,68.261673 C 60.722314,67.019797 62.884715,66.019079 62.287469,64.363765 C 62.171875,64.220628 61.921384,64.271519 61.78674,64.190536 z "
       id="path3530" />
    <path
       sodipodi:type="arc"
       style="opacity:0.88372091;fill:url(#radialGradient3846);fill-opacity:1;stroke:none;stroke-width:3.5;stroke-miterlimit:4;stroke-dasharray:none;stroke-dashoffset:0;stroke-opacity:1"
       id="path4224"
       sodipodi:cx="342.12119"
       sodipodi:cy="1181.5369"
       sodipodi:rx="109.99036"
       sodipodi:ry="109.99036"
       d="M 452.11154 1181.5369 A 109.99036 109.99036 0 1 1  232.13083,1181.5369 A 109.99036 109.99036 0 1 1  452.11154 1181.5369 z"
       transform="matrix(0.331653,0,0,0.307546,-63.36384,-329.7397)" />
    <path
       style="opacity:1;fill:#57bf15;fill-opacity:1;fill-rule:evenodd;stroke:#004301;stroke-width:5.09762621;stroke-linecap:butt;stroke-linejoin:miter;stroke-miterlimit:4;stroke-dasharray:none;stroke-opacity:1"
       d="M 24.632604,53.658259 L 28.54698,58.414425 L 53.977601,89.919556 L 56.091313,92.500313 L 58.218167,89.919556 L 83.648699,58.319902 L 87.550005,53.563715 L 81.521929,53.563715 L 71.438231,53.563715 L 71.494888,27.118769 L 71.494888,24.240674 L 68.715669,24.240674 L 56.781243,24.240674 L 56.768261,24.240674 L 56.755191,24.240674 L 43.145166,24.155418 L 40.379004,24.182454 L 40.379004,27.046923 L 40.485904,53.658259 L 30.660772,53.658259 L 24.632604,53.658259 z "
       id="path2712"
       sodipodi:nodetypes="ccccccccccccccccccccc" />
    <path
       style="opacity:1;fill:url(#linearGradient8588);fill-opacity:1;fill-rule:evenodd;stroke:none;stroke-width:0.79579568;stroke-linecap:butt;stroke-linejoin:miter;stroke-miterlimit:4;stroke-dasharray:none;stroke-opacity:1"
       d="M 26.652335,54.63403 L 29.871817,58.416995 L 53.836552,89.070773 L 55.828412,91.631955 L 57.832666,89.070773 L 81.797321,58.32317 L 84.887181,54.657368 L 80.262401,54.540221 L 71.003537,54.540221 L 70.534283,29.372453 L 70.534283,26.516207 L 67.915265,26.516207 L 56.271061,26.516207 L 56.25883,26.516207 L 56.246512,26.516207 L 43.729254,26.61011 L 41.122549,26.636947 L 41.122549,29.479687 L 41.591804,54.63403 L 32.333012,54.63403 L 26.652335,54.63403 z "
       id="path2714"
       sodipodi:nodetypes="ccccccccccccccccccccc" />
    <path
       style="opacity:1;fill:none;fill-opacity:1;fill-rule:evenodd;stroke:white;stroke-width:4.66188669;stroke-linecap:butt;stroke-linejoin:miter;stroke-miterlimit:4;stroke-dasharray:none;stroke-opacity:1"
       d="M 31.71219,57.260289 L 34.124968,60.282077 L 54.276592,85.107812 L 55.942124,87.130529 L 57.618022,85.107812 L 77.543374,60.208 L 79.945847,57.186211 L 75.195909,57.186211 L 68.349454,57.186211 L 68.238681,31.237229 L 68.238681,28.981496 L 66.048754,28.981496 L 56.312244,28.981496 L 56.302018,28.981496 L 56.291711,28.981496 L 45.825196,29.055664 L 43.645562,29.076848 L 43.645562,31.321907 L 43.756335,57.260289 L 36.462193,57.260289 L 31.71219,57.260289 z "
       id="path2716"
       sodipodi:nodetypes="ccccccccccccccccccccc" />
  </g>
</svg>
