<?xml version="1.0" encoding="UTF-8" standalone="no"?>
<!-- Created with Inkscape (http://www.inkscape.org/) -->
<svg
   xmlns:dc="http://purl.org/dc/elements/1.1/"
   xmlns:cc="http://web.resource.org/cc/"
   xmlns:rdf="http://www.w3.org/1999/02/22-rdf-syntax-ns#"
   xmlns:svg="http://www.w3.org/2000/svg"
   xmlns="http://www.w3.org/2000/svg"
   xmlns:xlink="http://www.w3.org/1999/xlink"
   xmlns:sodipodi="http://sodipodi.sourceforge.net/DTD/sodipodi-0.dtd"
   xmlns:inkscape="http://www.inkscape.org/namespaces/inkscape"
   width="96"
   height="96"
   id="svg2026"
   sodipodi:version="0.32"
   inkscape:version="0.44"
   version="1.0"
   inkscape:export-filename="/home/void/dcpp_pixmaps/settings.png"
   inkscape:export-xdpi="90"
   inkscape:export-ydpi="90"
   sodipodi:docbase="/home/void/ldcpp_svg"
   sodipodi:docname="settings.svg">
  <defs
     id="defs2028">
    <linearGradient
       inkscape:collect="always"
       id="linearGradient5672">
      <stop
         style="stop-color:#000000;stop-opacity:1;"
         offset="0"
         id="stop5674" />
      <stop
         style="stop-color:#000000;stop-opacity:0;"
         offset="1"
         id="stop5676" />
    </linearGradient>
    <linearGradient
       inkscape:collect="always"
       id="linearGradient3420">
      <stop
         style="stop-color:#000000;stop-opacity:1;"
         offset="0"
         id="stop3422" />
      <stop
         style="stop-color:#000000;stop-opacity:0;"
         offset="1"
         id="stop3424" />
    </linearGradient>
    <linearGradient
       inkscape:collect="always"
       xlink:href="#linearGradient3420"
       id="linearGradient3426"
       x1="715.1615"
       y1="941.81207"
       x2="699.22913"
       y2="941.02264"
       gradientUnits="userSpaceOnUse"
       gradientTransform="matrix(-0.659107,0.643298,0.500383,0.529358,50.09922,-890.5)" />
    <linearGradient
       inkscape:collect="always"
       id="linearGradient3388">
      <stop
         style="stop-color:#ffffff;stop-opacity:1;"
         offset="0"
         id="stop3390" />
      <stop
         style="stop-color:#ffffff;stop-opacity:0;"
         offset="1"
         id="stop3392" />
    </linearGradient>
    <linearGradient
       inkscape:collect="always"
       xlink:href="#linearGradient3388"
       id="linearGradient3394"
       x1="694.57574"
       y1="966.13623"
       x2="700.09357"
       y2="966.3938"
       gradientUnits="userSpaceOnUse"
       gradientTransform="matrix(-0.623338,0.609019,0.473218,0.501244,49.83705,-838.3867)" />
    <linearGradient
       inkscape:collect="always"
       id="linearGradient2444">
      <stop
         style="stop-color:#000000;stop-opacity:1;"
         offset="0"
         id="stop2446" />
      <stop
         style="stop-color:#000000;stop-opacity:0;"
         offset="1"
         id="stop2448" />
    </linearGradient>
    <radialGradient
       inkscape:collect="always"
       xlink:href="#linearGradient2444"
       id="radialGradient2450"
       cx="10.871547"
       cy="11.241725"
       fx="10.871547"
       fy="11.241725"
       r="9.9705601"
       gradientTransform="matrix(0.205352,0.198032,-1.148049,1.19049,22.22546,-4.112797)"
       gradientUnits="userSpaceOnUse" />
    <linearGradient
       inkscape:collect="always"
       id="linearGradient2454">
      <stop
         style="stop-color:#000000;stop-opacity:1;"
         offset="0"
         id="stop2456" />
      <stop
         style="stop-color:#000000;stop-opacity:0;"
         offset="1"
         id="stop2458" />
    </linearGradient>
    <radialGradient
       inkscape:collect="always"
       xlink:href="#linearGradient2454"
       id="radialGradient2460"
       cx="20.334053"
       cy="15.175611"
       fx="20.334053"
       fy="15.175611"
       r="5.6659465"
       gradientTransform="matrix(0.387872,-0.320514,1.029538,1.24591,-8.486787,3.957524)"
       gradientUnits="userSpaceOnUse" />
    <linearGradient
       inkscape:collect="always"
       id="linearGradient5212">
      <stop
         style="stop-color:#ffffff;stop-opacity:1;"
         offset="0"
         id="stop5214" />
      <stop
         style="stop-color:#ffffff;stop-opacity:0;"
         offset="1"
         id="stop5216" />
    </linearGradient>
    <linearGradient
       inkscape:collect="always"
       id="linearGradient5168">
      <stop
         style="stop-color:#000000;stop-opacity:1;"
         offset="0"
         id="stop5170" />
      <stop
         style="stop-color:#000000;stop-opacity:0;"
         offset="1"
         id="stop5172" />
    </linearGradient>
    <linearGradient
       inkscape:collect="always"
       id="linearGradient5158">
      <stop
         style="stop-color:#ffffff;stop-opacity:1;"
         offset="0"
         id="stop5160" />
      <stop
         style="stop-color:#ffffff;stop-opacity:0;"
         offset="1"
         id="stop5162" />
    </linearGradient>
    <linearGradient
       inkscape:collect="always"
       id="linearGradient2323">
      <stop
         style="stop-color:#ffffff;stop-opacity:1;"
         offset="0"
         id="stop2325" />
      <stop
         style="stop-color:#ffffff;stop-opacity:0;"
         offset="1"
         id="stop2327" />
    </linearGradient>
    <linearGradient
       inkscape:collect="always"
       xlink:href="#linearGradient2323"
       id="linearGradient2329"
       x1="10.221783"
       y1="5.9955444"
       x2="14.915843"
       y2="17.5"
       gradientUnits="userSpaceOnUse"
       gradientTransform="matrix(1.075221,0,4.853813e-2,1.00871,0.528478,3.674216)" />
    <linearGradient
       inkscape:collect="always"
       id="linearGradient2302">
      <stop
         style="stop-color:#ffffff;stop-opacity:1;"
         offset="0"
         id="stop2304" />
      <stop
         style="stop-color:#ffffff;stop-opacity:0;"
         offset="1"
         id="stop2306" />
    </linearGradient>
    <linearGradient
       inkscape:collect="always"
       xlink:href="#linearGradient2302"
       id="linearGradient2308"
       x1="17.223875"
       y1="22.727877"
       x2="16.552736"
       y2="7.4214659"
       gradientUnits="userSpaceOnUse"
       spreadMethod="reflect"
       gradientTransform="matrix(1.017717,0,5.239356e-7,0.959751,1.886838,4.225611)" />
    <linearGradient
       inkscape:collect="always"
       id="linearGradient2333">
      <stop
         style="stop-color:#ffffff;stop-opacity:1;"
         offset="0"
         id="stop2335" />
      <stop
         style="stop-color:#ffffff;stop-opacity:0;"
         offset="1"
         id="stop2337" />
    </linearGradient>
    <linearGradient
       inkscape:collect="always"
       id="linearGradient2313">
      <stop
         style="stop-color:#000000;stop-opacity:1;"
         offset="0"
         id="stop2315" />
      <stop
         style="stop-color:#000000;stop-opacity:0;"
         offset="1"
         id="stop2317" />
    </linearGradient>
    <linearGradient
       inkscape:collect="always"
       xlink:href="#linearGradient2313"
       id="linearGradient2319"
       x1="14.079826"
       y1="15.866873"
       x2="14.992464"
       y2="2.1693037"
       gradientUnits="userSpaceOnUse"
       gradientTransform="matrix(1.0532,0,8.150114e-2,1.186969,-0.270101,-1.344833)" />
    <linearGradient
       id="linearGradient2929">
      <stop
         style="stop-color:#639add;stop-opacity:1;"
         offset="0"
         id="stop2931" />
      <stop
         style="stop-color:#639add;stop-opacity:0;"
         offset="1"
         id="stop2933" />
    </linearGradient>
    <linearGradient
       inkscape:collect="always"
       xlink:href="#linearGradient2929"
       id="linearGradient3093"
       gradientUnits="userSpaceOnUse"
       gradientTransform="matrix(0.151125,0,0,0.169342,6.245641,1.382189)"
       x1="35.971149"
       y1="13.491739"
       x2="92.000916"
       y2="93.958176" />
    <radialGradient
       inkscape:collect="always"
       xlink:href="#linearGradient4900"
       id="radialGradient3417"
       gradientUnits="userSpaceOnUse"
       gradientTransform="matrix(0.121347,0,0,3.962114e-2,-115.3216,16.54947)"
       cx="1059.9259"
       cy="60.91605"
       fx="1059.9259"
       fy="60.91605"
       r="59.479008" />
    <linearGradient
       inkscape:collect="always"
       xlink:href="#linearGradient3733"
       id="linearGradient2353"
       gradientUnits="userSpaceOnUse"
       gradientTransform="matrix(0.958273,0,0,1.51416,-9.761072,-6.544609)"
       x1="9.645155"
       y1="17"
       x2="9.6540394"
       y2="19" />
    <radialGradient
       inkscape:collect="always"
       xlink:href="#linearGradient3743"
       id="radialGradient2351"
       gradientUnits="userSpaceOnUse"
       gradientTransform="matrix(2.539422,0,0,3.15409,-16.74047,-36.06332)"
       cx="3.3365793"
       cy="17.519932"
       fx="3.3365793"
       fy="17.519932"
       r="1" />
    <radialGradient
       inkscape:collect="always"
       xlink:href="#linearGradient3743"
       id="radialGradient2349"
       gradientUnits="userSpaceOnUse"
       gradientTransform="matrix(2.539422,0,0,3.15409,-16.3838,-36.06332)"
       cx="3.3365793"
       cy="17.519932"
       fx="3.3365793"
       fy="17.519932"
       r="1" />
    <linearGradient
       inkscape:collect="always"
       xlink:href="#linearGradient3733"
       id="linearGradient2451"
       gradientUnits="userSpaceOnUse"
       gradientTransform="matrix(0.958273,0,0,1.514155,-26.17479,-19.63783)"
       x1="9.645155"
       y1="17"
       x2="9.6540394"
       y2="19" />
    <radialGradient
       inkscape:collect="always"
       xlink:href="#linearGradient3743"
       id="radialGradient2449"
       gradientUnits="userSpaceOnUse"
       gradientTransform="matrix(2.539422,0,0,3.154086,-33.15423,-49.15653)"
       cx="3.3365793"
       cy="17.519932"
       fx="3.3365793"
       fy="17.519932"
       r="1" />
    <radialGradient
       inkscape:collect="always"
       xlink:href="#linearGradient3743"
       id="radialGradient2447"
       gradientUnits="userSpaceOnUse"
       gradientTransform="matrix(2.539422,0,0,3.154086,2.990738e-2,-49.15653)"
       cx="3.3365793"
       cy="17.519932"
       fx="3.3365793"
       fy="17.519932"
       r="1" />
    <linearGradient
       inkscape:collect="always"
       xlink:href="#linearGradient3012"
       id="linearGradient3252"
       gradientUnits="userSpaceOnUse"
       gradientTransform="matrix(1.015604,0,0,-1.116445,-1.699113,25.80057)"
       spreadMethod="reflect"
       x1="10.108139"
       y1="12.783691"
       x2="14.732678"
       y2="12.783691" />
    <linearGradient
       inkscape:collect="always"
       id="linearGradient2694">
      <stop
         style="stop-color:#000000;stop-opacity:1;"
         offset="0"
         id="stop2696" />
      <stop
         style="stop-color:#000000;stop-opacity:0;"
         offset="1"
         id="stop2698" />
    </linearGradient>
    <linearGradient
       inkscape:collect="always"
       id="linearGradient2963">
      <stop
         style="stop-color:#ffffff;stop-opacity:1;"
         offset="0"
         id="stop2965" />
      <stop
         style="stop-color:#ffffff;stop-opacity:0;"
         offset="1"
         id="stop2967" />
    </linearGradient>
    <linearGradient
       inkscape:collect="always"
       xlink:href="#linearGradient3012"
       id="linearGradient2286"
       gradientUnits="userSpaceOnUse"
       gradientTransform="matrix(1.189866,0,0,1.189677,-7.516981,-4.68647)"
       x1="10.108139"
       y1="12.783691"
       x2="14.732678"
       y2="12.783691"
       spreadMethod="reflect" />
    <linearGradient
       inkscape:collect="always"
       id="linearGradient3743">
      <stop
         style="stop-color:#000000;stop-opacity:1;"
         offset="0"
         id="stop3745" />
      <stop
         style="stop-color:#000000;stop-opacity:0;"
         offset="1"
         id="stop3747" />
    </linearGradient>
    <linearGradient
       inkscape:collect="always"
       id="linearGradient3733">
      <stop
         style="stop-color:#000000;stop-opacity:1;"
         offset="0"
         id="stop3735" />
      <stop
         style="stop-color:#000000;stop-opacity:0;"
         offset="1"
         id="stop3737" />
    </linearGradient>
    <radialGradient
       inkscape:collect="always"
       xlink:href="#linearGradient4900"
       id="radialGradient6321"
       gradientUnits="userSpaceOnUse"
       gradientTransform="matrix(0.140191,0,0,3.467823e-2,-158.9206,-19.9118)"
       cx="1059.9259"
       cy="60.91605"
       fx="1059.9259"
       fy="60.91605"
       r="59.479008" />
    <linearGradient
       id="linearGradient3019">
      <stop
         style="stop-color:#ffffff;stop-opacity:1;"
         offset="0"
         id="stop3021" />
      <stop
         id="stop2485"
         offset="0.25"
         style="stop-color:#ffffff;stop-opacity:0.65490198;" />
      <stop
         id="stop2477"
         offset="0.5"
         style="stop-color:#000000;stop-opacity:0.29896906;" />
      <stop
         style="stop-color:#ffffff;stop-opacity:0.24705882;"
         offset="0.75"
         id="stop2481" />
      <stop
         id="stop2483"
         offset="0.875"
         style="stop-color:#ffffff;stop-opacity:1;" />
      <stop
         style="stop-color:#ffffff;stop-opacity:1;"
         offset="1"
         id="stop3023" />
    </linearGradient>
    <linearGradient
       inkscape:collect="always"
       xlink:href="#linearGradient3019"
       id="linearGradient6323"
       gradientUnits="userSpaceOnUse"
       gradientTransform="matrix(1.91186e-2,-0.177887,-0.180489,-2.700197e-4,20.83249,22.24678)"
       spreadMethod="reflect"
       x1="-86.469414"
       y1="59.117023"
       x2="152.71753"
       y2="62.137997" />
    <linearGradient
       inkscape:collect="always"
       id="linearGradient3031">
      <stop
         style="stop-color:#000000;stop-opacity:1;"
         offset="0"
         id="stop3033" />
      <stop
         style="stop-color:#000000;stop-opacity:0;"
         offset="1"
         id="stop3035" />
    </linearGradient>
    <linearGradient
       inkscape:collect="always"
       xlink:href="#linearGradient3031"
       id="linearGradient6325"
       gradientUnits="userSpaceOnUse"
       gradientTransform="matrix(-1.369896e-2,-0.234664,-0.172042,-1.137148e-3,21.97012,27.75445)"
       x1="61.33279"
       y1="74.088112"
       x2="96.82074"
       y2="73.013199" />
    <linearGradient
       inkscape:collect="always"
       id="linearGradient3150">
      <stop
         style="stop-color:#ffffff;stop-opacity:1;"
         offset="0"
         id="stop3152" />
      <stop
         style="stop-color:#ffffff;stop-opacity:0;"
         offset="1"
         id="stop3154" />
    </linearGradient>
    <linearGradient
       inkscape:collect="always"
       xlink:href="#linearGradient3150"
       id="linearGradient6327"
       gradientUnits="userSpaceOnUse"
       gradientTransform="matrix(-0.19376,-1.492815e-3,-3.361656e-3,0.25488,41.0169,-5.690754)"
       x1="64.759377"
       y1="6.4954252"
       x2="65.223053"
       y2="30.935276" />
    <linearGradient
       id="linearGradient2683">
      <stop
         style="stop-color:#ffffff;stop-opacity:1;"
         offset="0"
         id="stop2685" />
      <stop
         style="stop-color:#ffffff;stop-opacity:0;"
         offset="1"
         id="stop2687" />
    </linearGradient>
    <linearGradient
       inkscape:collect="always"
       xlink:href="#linearGradient2683"
       id="linearGradient6329"
       gradientUnits="userSpaceOnUse"
       gradientTransform="matrix(9.639045e-3,-0.221663,-0.151151,2.009705e-3,76.4258,14.56862)"
       x1="110.72213"
       y1="380.90686"
       x2="25.044636"
       y2="424.19559" />
    <linearGradient
       inkscape:collect="always"
       xlink:href="#linearGradient2814"
       id="linearGradient6331"
       gradientUnits="userSpaceOnUse"
       gradientTransform="matrix(7.877002e-3,-0.166685,-0.150321,1.461963e-3,81.0278,45.16368)"
       x1="138.3201"
       y1="483.37943"
       x2="181.49837"
       y2="484.25775" />
    <linearGradient
       inkscape:collect="always"
       id="linearGradient2814">
      <stop
         style="stop-color:#ffffff;stop-opacity:1;"
         offset="0"
         id="stop2816" />
      <stop
         style="stop-color:#ffffff;stop-opacity:0;"
         offset="1"
         id="stop2818" />
    </linearGradient>
    <linearGradient
       inkscape:collect="always"
       xlink:href="#linearGradient2814"
       id="linearGradient6333"
       gradientUnits="userSpaceOnUse"
       gradientTransform="matrix(7.121993e-3,-0.151621,-0.103865,1.048699e-3,56.09295,41.8256)"
       x1="180.40201"
       y1="500.82196"
       x2="210.2531"
       y2="485.39716" />
    <radialGradient
       inkscape:collect="always"
       xlink:href="#linearGradient4900"
       id="radialGradient2256"
       gradientUnits="userSpaceOnUse"
       gradientTransform="matrix(0.140068,0,0,5.240479e-2,-138.8925,13.93733)"
       cx="1059.9259"
       cy="60.91605"
       fx="1059.9259"
       fy="60.91605"
       r="59.479008" />
    <linearGradient
       inkscape:collect="always"
       xlink:href="#linearGradient4242"
       id="linearGradient2258"
       gradientUnits="userSpaceOnUse"
       x1="390.39026"
       y1="1120.9124"
       x2="465.5636"
       y2="1253.4203" />
    <radialGradient
       inkscape:collect="always"
       xlink:href="#linearGradient4234"
       id="radialGradient2260"
       gradientUnits="userSpaceOnUse"
       cx="342.12119"
       cy="1181.5369"
       fx="342.12119"
       fy="1181.5369"
       r="109.99036" />
    <linearGradient
       inkscape:collect="always"
       xlink:href="#linearGradient3012"
       id="linearGradient2262"
       gradientUnits="userSpaceOnUse"
       gradientTransform="matrix(0.927007,0,0,0.927007,28.26143,3.270183)"
       x1="12.936634"
       y1="13.365853"
       x2="14.732681"
       y2="12.783695" />
    <linearGradient
       inkscape:collect="always"
       id="linearGradient4667">
      <stop
         style="stop-color:#ffffff;stop-opacity:1;"
         offset="0"
         id="stop4669" />
      <stop
         style="stop-color:#ffffff;stop-opacity:0;"
         offset="1"
         id="stop4671" />
    </linearGradient>
    <linearGradient
       inkscape:collect="always"
       xlink:href="#linearGradient4667"
       id="linearGradient4673"
       x1="-1.0814776"
       y1="1.9097753"
       x2="5.5923519"
       y2="5.9303746"
       gradientUnits="userSpaceOnUse"
       spreadMethod="repeat" />
    <linearGradient
       inkscape:collect="always"
       id="linearGradient4679">
      <stop
         style="stop-color:#ffffff;stop-opacity:1;"
         offset="0"
         id="stop4681" />
      <stop
         style="stop-color:#ffffff;stop-opacity:0;"
         offset="1"
         id="stop4683" />
    </linearGradient>
    <linearGradient
       inkscape:collect="always"
       xlink:href="#linearGradient4679"
       id="linearGradient4685"
       x1="4.4736943"
       y1="2.8268745"
       x2="4.0743012"
       y2="1.3999547"
       gradientUnits="userSpaceOnUse" />
    <linearGradient
       inkscape:collect="always"
       id="linearGradient3012">
      <stop
         style="stop-color:#ffffff;stop-opacity:1;"
         offset="0"
         id="stop3014" />
      <stop
         style="stop-color:#ffffff;stop-opacity:0;"
         offset="1"
         id="stop3016" />
    </linearGradient>
    <linearGradient
       inkscape:collect="always"
       id="linearGradient2993">
      <stop
         style="stop-color:#ffffff;stop-opacity:1;"
         offset="0"
         id="stop2995" />
      <stop
         style="stop-color:#ffffff;stop-opacity:0;"
         offset="1"
         id="stop2997" />
    </linearGradient>
    <linearGradient
       inkscape:collect="always"
       id="linearGradient4242">
      <stop
         style="stop-color:#ffffff;stop-opacity:1;"
         offset="0"
         id="stop4244" />
      <stop
         style="stop-color:#ffffff;stop-opacity:0;"
         offset="1"
         id="stop4246" />
    </linearGradient>
    <linearGradient
       inkscape:collect="always"
       xlink:href="#linearGradient4242"
       id="linearGradient4248"
       x1="390.39026"
       y1="1120.9124"
       x2="465.5636"
       y2="1253.4203"
       gradientUnits="userSpaceOnUse" />
    <linearGradient
       inkscape:collect="always"
       id="linearGradient4234">
      <stop
         style="stop-color:#ffffff;stop-opacity:1;"
         offset="0"
         id="stop4236" />
      <stop
         style="stop-color:#ffffff;stop-opacity:0;"
         offset="1"
         id="stop4238" />
    </linearGradient>
    <radialGradient
       inkscape:collect="always"
       xlink:href="#linearGradient4234"
       id="radialGradient3846"
       cx="342.12119"
       cy="1181.5369"
       fx="342.12119"
       fy="1181.5369"
       r="109.99036"
       gradientUnits="userSpaceOnUse" />
    <linearGradient
       inkscape:collect="always"
       id="linearGradient4900">
      <stop
         style="stop-color:#000000;stop-opacity:1;"
         offset="0"
         id="stop4902" />
      <stop
         style="stop-color:#000000;stop-opacity:0;"
         offset="1"
         id="stop4904" />
    </linearGradient>
    <linearGradient
       inkscape:collect="always"
       xlink:href="#linearGradient2993"
       id="linearGradient2999"
       x1="6.2435646"
       y1="4.7686954"
       x2="8.1368704"
       y2="6.9310718"
       gradientUnits="userSpaceOnUse" />
    <linearGradient
       inkscape:collect="always"
       xlink:href="#linearGradient3012"
       id="linearGradient3018"
       x1="12.936634"
       y1="13.365853"
       x2="14.732681"
       y2="12.783695"
       gradientUnits="userSpaceOnUse"
       gradientTransform="matrix(0.905083,0,0,-0.905083,-0.335587,23.70696)" />
    <linearGradient
       inkscape:collect="always"
       xlink:href="#linearGradient3012"
       id="linearGradient4402"
       gradientUnits="userSpaceOnUse"
       gradientTransform="matrix(0.905083,0,0,-0.905083,-0.592111,23.6152)"
       x1="12.936634"
       y1="13.365853"
       x2="14.732681"
       y2="12.783695" />
    <linearGradient
       inkscape:collect="always"
       xlink:href="#linearGradient4667"
       id="linearGradient2476"
       gradientUnits="userSpaceOnUse"
       spreadMethod="repeat"
       x1="-1.0814776"
       y1="1.9097753"
       x2="5.5923519"
       y2="5.9303746" />
    <linearGradient
       inkscape:collect="always"
       xlink:href="#linearGradient4679"
       id="linearGradient2478"
       gradientUnits="userSpaceOnUse"
       x1="4.2517347"
       y1="1.9836402"
       x2="3.5987213"
       y2="0.59739709" />
    <linearGradient
       inkscape:collect="always"
       xlink:href="#linearGradient3031"
       id="linearGradient3676"
       gradientUnits="userSpaceOnUse"
       gradientTransform="matrix(-1.340481e-2,-0.248579,-0.168348,-1.204574e-3,21.60135,29.40044)"
       x1="61.33279"
       y1="74.088112"
       x2="96.82074"
       y2="73.013199" />
    <linearGradient
       inkscape:collect="always"
       xlink:href="#linearGradient3150"
       id="linearGradient3678"
       gradientUnits="userSpaceOnUse"
       gradientTransform="matrix(-0.181996,-1.171929e-3,-3.157555e-3,0.200093,21.26333,-0.922152)"
       x1="64.567307"
       y1="17.566042"
       x2="64.937248"
       y2="33.659428" />
    <linearGradient
       inkscape:collect="always"
       xlink:href="#linearGradient3733"
       id="linearGradient3739"
       x1="9.645155"
       y1="17"
       x2="9.6540394"
       y2="19"
       gradientUnits="userSpaceOnUse"
       gradientTransform="matrix(0.763801,0,0,1.427397,2.25158,-7.048383)" />
    <radialGradient
       inkscape:collect="always"
       xlink:href="#linearGradient3743"
       id="radialGradient3749"
       cx="3.3365793"
       cy="17.519932"
       fx="3.3365793"
       fy="17.519932"
       r="1"
       gradientUnits="userSpaceOnUse"
       gradientTransform="matrix(2.024072,0,0,2.973355,-3.311436,-34.87565)" />
    <radialGradient
       inkscape:collect="always"
       xlink:href="#linearGradient3743"
       id="radialGradient3753"
       gradientUnits="userSpaceOnUse"
       gradientTransform="matrix(2.024072,0,0,2.973355,-23.09062,-34.87565)"
       cx="3.3365793"
       cy="17.519932"
       fx="3.3365793"
       fy="17.519932"
       r="1" />
    <linearGradient
       inkscape:collect="always"
       xlink:href="#linearGradient2963"
       id="linearGradient2969"
       x1="9.5789518"
       y1="9.5"
       x2="13.177423"
       y2="9.5"
       gradientUnits="userSpaceOnUse" />
    <radialGradient
       inkscape:collect="always"
       xlink:href="#linearGradient2694"
       id="radialGradient2700"
       cx="12.343565"
       cy="20.918812"
       fx="12.343565"
       fy="20.918812"
       r="8.8297033"
       gradientTransform="matrix(1,0,0,0.255102,0,15.58238)"
       gradientUnits="userSpaceOnUse" />
    <radialGradient
       inkscape:collect="always"
       xlink:href="#linearGradient3743"
       id="radialGradient4688"
       gradientUnits="userSpaceOnUse"
       gradientTransform="matrix(0.950092,0,0,1.379899,-8.963292,-15.68752)"
       cx="3.3365793"
       cy="17.519932"
       fx="3.3365793"
       fy="17.519932"
       r="1" />
    <radialGradient
       inkscape:collect="always"
       xlink:href="#linearGradient3743"
       id="radialGradient4690"
       gradientUnits="userSpaceOnUse"
       gradientTransform="matrix(0.9144,0,0,1.196064,-3.040522,-9.014846)"
       cx="3.3365793"
       cy="17.519932"
       fx="3.3365793"
       fy="17.519932"
       r="1" />
    <linearGradient
       inkscape:collect="always"
       xlink:href="#linearGradient3733"
       id="linearGradient4692"
       gradientUnits="userSpaceOnUse"
       gradientTransform="matrix(0.358526,0,0,0.662436,-0.818471,-2.773235)"
       x1="9.645155"
       y1="17"
       x2="9.6540394"
       y2="19" />
    <radialGradient
       inkscape:collect="always"
       xlink:href="#linearGradient3743"
       id="radialGradient5111"
       gradientUnits="userSpaceOnUse"
       gradientTransform="matrix(2.539422,0,0,3.15409,-7.050492,-57.63001)"
       cx="3.3365793"
       cy="17.519932"
       fx="3.3365793"
       fy="17.519932"
       r="1" />
    <radialGradient
       inkscape:collect="always"
       xlink:href="#linearGradient3743"
       id="radialGradient5113"
       gradientUnits="userSpaceOnUse"
       gradientTransform="matrix(2.539422,0,0,3.15409,-26.07378,-57.63001)"
       cx="3.3365793"
       cy="17.519932"
       fx="3.3365793"
       fy="17.519932"
       r="1" />
    <linearGradient
       inkscape:collect="always"
       xlink:href="#linearGradient3733"
       id="linearGradient5115"
       gradientUnits="userSpaceOnUse"
       gradientTransform="matrix(0.958273,0,0,1.51416,-19.09438,-28.11131)"
       x1="9.645155"
       y1="17"
       x2="9.6540394"
       y2="19" />
    <linearGradient
       inkscape:collect="always"
       xlink:href="#linearGradient2313"
       id="linearGradient5137"
       gradientUnits="userSpaceOnUse"
       gradientTransform="matrix(1.0532,0,6.017872e-2,1.199344,31.71965,-20.6813)"
       x1="14.079826"
       y1="15.866873"
       x2="14.992464"
       y2="2.1693037" />
    <linearGradient
       inkscape:collect="always"
       xlink:href="#linearGradient2333"
       id="linearGradient5139"
       gradientUnits="userSpaceOnUse"
       gradientTransform="matrix(1.085634,0,3.996507e-2,1.223186,31.92083,-20.78073)"
       x1="7.3836637"
       y1="2.049505"
       x2="13.89604"
       y2="8.7658415" />
    <linearGradient
       inkscape:collect="always"
       xlink:href="#linearGradient2302"
       id="linearGradient5141"
       gradientUnits="userSpaceOnUse"
       gradientTransform="matrix(1.107566,0,5.79567e-7,1.091237,31.91906,-18.95781)"
       spreadMethod="reflect"
       x1="17.223875"
       y1="22.727877"
       x2="16.552736"
       y2="7.4214659" />
    <linearGradient
       inkscape:collect="always"
       xlink:href="#linearGradient2323"
       id="linearGradient5143"
       gradientUnits="userSpaceOnUse"
       gradientTransform="matrix(1.117191,0,5.043274e-2,1.123892,31.67926,-19.39462)"
       x1="10.221783"
       y1="5.9955444"
       x2="14.915843"
       y2="17.5" />
    <radialGradient
       inkscape:collect="always"
       xlink:href="#linearGradient3743"
       id="radialGradient5145"
       gradientUnits="userSpaceOnUse"
       gradientTransform="matrix(2.539422,0,0,3.15409,-48.77118,-55.39006)"
       cx="3.3365793"
       cy="17.519932"
       fx="3.3365793"
       fy="17.519932"
       r="1" />
    <radialGradient
       inkscape:collect="always"
       xlink:href="#linearGradient3743"
       id="radialGradient5147"
       gradientUnits="userSpaceOnUse"
       gradientTransform="matrix(2.539422,0,0,3.15409,15.64691,-55.39006)"
       cx="3.3365793"
       cy="17.519932"
       fx="3.3365793"
       fy="17.519932"
       r="1" />
    <linearGradient
       inkscape:collect="always"
       xlink:href="#linearGradient3733"
       id="linearGradient5149"
       gradientUnits="userSpaceOnUse"
       gradientTransform="matrix(0.958273,0,0,1.51416,22.6263,-25.87135)"
       x1="9.645155"
       y1="17"
       x2="9.6540394"
       y2="19" />
    <linearGradient
       inkscape:collect="always"
       xlink:href="#linearGradient5158"
       id="linearGradient5164"
       x1="3.9014251"
       y1="4.6168995"
       x2="6.9556971"
       y2="10.416694"
       gradientUnits="userSpaceOnUse"
       gradientTransform="matrix(0.948965,0,0,0.924136,0.711428,3.236893)" />
    <linearGradient
       inkscape:collect="always"
       xlink:href="#linearGradient5168"
       id="linearGradient5174"
       x1="10.129544"
       y1="15.166256"
       x2="9.4534826"
       y2="1"
       gradientUnits="userSpaceOnUse"
       gradientTransform="matrix(1,0,0,0.924136,0.244208,3.236892)" />
    <linearGradient
       inkscape:collect="always"
       xlink:href="#linearGradient5212"
       id="linearGradient5218"
       x1="-12.172243"
       y1="2.1429665"
       x2="0.55860353"
       y2="9.0415964"
       gradientUnits="userSpaceOnUse"
       gradientTransform="matrix(1.074303,7.665216e-8,0,1.021487,-17.19633,10.38925)" />
    <radialGradient
       inkscape:collect="always"
       xlink:href="#linearGradient5672"
       id="radialGradient5678"
       cx="11.532674"
       cy="12.629703"
       fx="11.532674"
       fy="12.629703"
       r="5.3158417"
       gradientUnits="userSpaceOnUse" />
  </defs>
  <sodipodi:namedview
     id="base"
     pagecolor="#ffffff"
     bordercolor="#666666"
     borderopacity="1.0"
     inkscape:pageopacity="0.0"
     inkscape:pageshadow="2"
     inkscape:zoom="2.7747253"
     inkscape:cx="95.955333"
     inkscape:cy="45.115874"
     inkscape:current-layer="layer1"
     showgrid="true"
     inkscape:grid-bbox="true"
     inkscape:document-units="px"
     inkscape:window-width="1032"
     inkscape:window-height="637"
     inkscape:window-x="364"
     inkscape:window-y="0"
     showguides="true"
     inkscape:guide-bbox="true"
     width="96px"
     height="96px" />
  <metadata
     id="metadata2031">
    <rdf:RDF>
      <cc:Work
         rdf:about="">
        <dc:format>image/svg+xml</dc:format>
        <dc:type
           rdf:resource="http://purl.org/dc/dcmitype/StillImage" />
      </cc:Work>
    </rdf:RDF>
  </metadata>
  <g
     id="layer1"
     inkscape:label="Layer 1"
     inkscape:groupmode="layer">
    <path
       style="opacity:1;fill:#343434;fill-opacity:1;stroke:none;stroke-width:0.77249998;stroke-linejoin:round;stroke-miterlimit:4;stroke-dasharray:none;stroke-opacity:1"
       d="M 15.686996,62.071404 C 7.0807174,63.041772 0.39356898,70.265272 0.39356897,79.003412 C 0.39356897,88.40242 8.0593713,96.071965 17.598674,96.071969 C 27.137978,96.071969 34.940328,88.40242 34.940328,79.003412 C 34.940328,69.604404 27.137978,62.071404 17.598674,62.071404 C 16.927942,62.071404 16.337891,61.998013 15.686996,62.071404 z M 15.823544,75.589701 C 15.855301,75.584846 15.928086,75.593773 15.960093,75.589701 C 16.056833,75.579865 16.271017,75.592205 16.369738,75.589701 C 16.469059,75.589701 16.681953,75.582281 16.779384,75.589701 C 16.940617,75.606091 17.170854,75.690502 17.325577,75.726249 C 17.478848,75.765715 17.726522,75.805491 17.871771,75.862798 C 17.929169,75.887088 18.088935,75.972382 18.144868,75.999346 C 18.255209,76.055888 18.450677,76.205851 18.554514,76.272443 C 18.631096,76.324196 18.755094,76.351995 18.82761,76.408992 C 18.85131,76.428554 18.940941,76.525427 18.964159,76.54554 C 18.986885,76.566195 19.078483,76.6609 19.100707,76.682088 C 19.122419,76.703801 19.216067,76.796413 19.237256,76.818637 C 19.257912,76.841363 19.35369,76.931966 19.373804,76.955185 C 19.530298,77.144785 19.665221,77.420376 19.78345,77.637928 C 19.81172,77.693098 19.894361,77.854351 19.919998,77.911025 C 19.944288,77.968423 20.03501,78.125338 20.056547,78.184121 C 20.066611,78.213843 20.047196,78.290629 20.056547,78.32067 C 20.082427,78.411731 20.17391,78.636641 20.193095,78.730315 C 20.204357,78.793307 20.18495,78.939398 20.193095,79.003412 C 20.199651,79.067907 20.189777,79.211114 20.193095,79.276509 C 20.19393,79.309416 20.193095,79.379949 20.193095,79.413058 C 20.193095,79.479274 20.196413,79.62076 20.193095,79.686154 C 20.188148,79.751108 20.20124,79.895237 20.193095,79.959251 C 20.178525,80.054521 20.214542,80.276061 20.193095,80.368897 C 20.177309,80.430206 20.075248,80.581908 20.056547,80.641994 C 20.046482,80.671715 20.067315,80.749152 20.056547,80.778542 C 20.033623,80.83664 19.945636,80.994962 19.919998,81.051639 C 19.893034,81.107574 19.813007,81.270348 19.78345,81.324736 C 19.768038,81.35153 19.662936,81.434905 19.646901,81.461284 C 19.58031,81.565122 19.449801,81.77424 19.373804,81.87093 C 19.256434,82.013132 19.100515,82.156633 18.964159,82.280575 C 18.940941,82.300688 18.85131,82.397561 18.82761,82.417124 C 18.803439,82.436122 18.715696,82.535246 18.691062,82.553672 C 18.590719,82.625049 18.388586,82.765123 18.281417,82.826769 C 18.172642,82.885885 17.986566,82.914737 17.871771,82.963317 C 17.813672,82.98624 17.658118,83.079735 17.598674,83.099866 C 17.448461,83.14662 17.20996,83.208261 17.052481,83.236414 C 16.988968,83.246128 16.843877,83.22986 16.779384,83.236414 C 16.681953,83.243834 16.469059,83.236414 16.369738,83.236414 C 16.271017,83.233911 16.056833,83.24625 15.960093,83.236414 C 15.89608,83.228269 15.749987,83.247675 15.686996,83.236414 C 15.624546,83.223625 15.475207,83.115653 15.413899,83.099866 C 15.353192,83.08261 15.200246,83.119996 15.140802,83.099866 C 15.08202,83.078328 14.925103,82.987608 14.867705,82.963317 C 14.641004,82.860768 14.385649,82.696421 14.184963,82.553672 C 14.086427,82.479966 13.866221,82.363203 13.775318,82.280575 C 13.753094,82.259387 13.660481,82.165739 13.638769,82.144027 C 13.511634,82.010685 13.336186,81.748346 13.229124,81.597833 C 13.177372,81.521252 13.13881,81.405114 13.092575,81.324736 C 13.063018,81.270348 12.982991,81.107574 12.956027,81.051639 C 12.930389,80.994966 12.842402,80.83664 12.819478,80.778542 C 12.80871,80.749152 12.829543,80.671715 12.819478,80.641994 C 12.800777,80.581908 12.698716,80.430206 12.68293,80.368897 C 12.640036,80.18323 12.561224,79.881015 12.546382,79.686154 C 12.543063,79.62076 12.546382,79.479274 12.546382,79.413058 C 12.546382,79.379949 12.545547,79.309416 12.546382,79.276509 C 12.5497,79.211114 12.539825,79.067907 12.546382,79.003412 C 12.554526,78.939398 12.671668,78.793307 12.68293,78.730315 C 12.714905,78.574187 12.769156,78.33273 12.819478,78.184121 C 12.894855,77.978386 12.984693,77.688925 13.092575,77.501379 C 13.124645,77.448617 13.194622,77.279336 13.229124,77.228282 C 13.246967,77.203197 13.347246,77.116369 13.365672,77.091734 C 13.384672,77.067561 13.482659,76.978886 13.502221,76.955185 C 13.522335,76.931966 13.618113,76.841363 13.638769,76.818637 C 13.829472,76.618625 14.091764,76.427702 14.321511,76.272443 C 14.347471,76.255795 14.431679,76.151931 14.45806,76.135895 C 14.511645,76.105072 14.675986,76.027617 14.731157,75.999346 C 14.843023,75.945417 15.023239,75.905868 15.140802,75.862798 C 15.200246,75.842667 15.353192,75.743505 15.413899,75.726249 C 15.475207,75.710462 15.624546,75.739039 15.686996,75.726249 C 15.718492,75.720617 15.791788,75.594555 15.823544,75.589701 z "
       id="path5377" />
    <path
       sodipodi:type="arc"
       style="opacity:0.32608696;fill:url(#radialGradient5678);fill-opacity:1;stroke:none;stroke-width:0.71249998;stroke-linejoin:bevel;stroke-miterlimit:4;stroke-dasharray:none;stroke-opacity:1"
       id="path5670"
       sodipodi:cx="11.532674"
       sodipodi:cy="12.629703"
       sodipodi:rx="5.3158417"
       sodipodi:ry="5.3158417"
       d="M 16.848516 12.629703 A 5.3158417 5.3158417 0 1 1  6.2168322,12.629703 A 5.3158417 5.3158417 0 1 1  16.848516 12.629703 z"
       transform="matrix(5.155497,0,0,4.272944,-11.9982,15.02213)" />
    <path
       style="fill:black;fill-opacity:1;fill-rule:evenodd;stroke:#343434;stroke-width:9.36288071;stroke-linecap:butt;stroke-linejoin:miter;stroke-miterlimit:4;stroke-dasharray:none;stroke-opacity:1"
       d="M 69.248646,4.9547931 C 66.054443,4.9541792 56.604918,9.2390575 66.389911,21.922528 C 63.404699,26.512534 43.054559,49.546869 22.223819,69.169109 C 19.001992,67.934921 15.740152,67.853075 12.871622,68.830024 C 10.003106,69.806955 7.5053923,71.849549 6.1121099,74.711128 C 4.7188079,77.572747 4.6929673,80.732653 5.7340682,83.508969 C 6.77517,86.285259 8.9098506,88.67179 11.890677,90.043676 C 14.871495,91.415566 19.652836,91.816359 22.550992,90.927335 C 26.989929,89.565673 29.061342,87.330736 30.45463,83.314974 C 31.496143,80.313111 31.088571,76.716363 30.047467,73.940073 L 76.612933,25.208826 C 92.834986,25.52901 94.382834,6.3327457 83.815049,5.0383542 C 82.976187,19.649992 86.190949,17.565181 78.692708,18.072635 C 68.133659,18.787233 68.870575,17.40546 69.248646,4.9547931 z M 14.349977,71.247617 L 17.046257,71.508353 L 19.723904,71.581525 L 21.731761,73.313209 L 23.864114,74.897953 L 24.450274,77.439165 L 25.226683,79.935498 L 24.157572,82.334613 L 23.261775,84.798612 L 20.945635,86.124831 L 18.730792,87.630858 L 16.034516,87.370131 L 13.356874,87.29695 L 11.349018,85.565284 L 9.2166752,83.980518 L 8.6305144,81.439306 L 7.8514323,78.916183 L 8.9481104,76.514486 L 9.8438831,74.050492 L 12.160033,72.724272 L 14.349977,71.247617 z "
       id="path2331"
       sodipodi:nodetypes="cccsssssscccscccccccccccccccccccccc" />
    <path
       style="fill:white;fill-opacity:1;fill-rule:evenodd;stroke:white;stroke-width:1.18241692;stroke-linecap:butt;stroke-linejoin:miter;stroke-miterlimit:4;stroke-dasharray:none;stroke-opacity:1"
       d="M 67.633061,22.005885 C 64.646552,26.589169 43.109049,49.4045 22.269228,68.998011 C 19.045994,67.765618 15.782735,67.68389 12.912956,68.659401 C 10.043186,69.634908 7.5443844,71.674514 6.1504956,74.531889 C 4.7565849,77.389331 4.7307303,80.544596 5.7722874,83.316853 C 6.8138445,86.08908 8.9494544,88.472106 11.931579,89.841991 C 14.913696,91.211875 18.155669,91.315718 21.025449,90.340198 C 23.895232,89.364683 26.394019,87.325103 27.78791,84.467701 C 29.181838,81.610308 29.207675,78.454986 28.166118,75.682759 L 76.875102,25.476043 C 88.082178,26.23879 96.34387,11.091633 83.426273,4.8581207 C 82.973622,18.772681 86.238218,18.676112 78.18619,18.603706 C 68.484608,18.515408 69.361065,19.752476 69.530543,4.6513737 C 66.217012,5.1790931 55.912423,12.234651 67.633061,22.005885 z M 14.808551,71.209279 L 17.506009,71.469638 L 20.184823,71.542702 L 22.193552,73.271842 L 24.326834,74.854266 L 24.913255,77.391756 L 25.690002,79.884445 L 24.62042,82.280038 L 23.724235,84.740422 L 21.407086,86.064702 L 19.191274,87.568527 L 16.493827,87.308184 L 13.815015,87.235104 L 11.806285,85.505968 L 9.6730118,83.92353 L 9.0865932,81.386041 L 8.3071729,78.866623 L 9.404329,76.468439 L 10.300494,74.008055 L 12.617654,72.683766 L 14.808551,71.209279 z "
       id="path3236"
       sodipodi:nodetypes="ccsssssscccsccccccccccccccccccccccc" />
    <path
       style="opacity:0.03804345;fill:black;fill-opacity:1;fill-rule:evenodd;stroke:none;stroke-width:1.00100005;stroke-linecap:butt;stroke-linejoin:miter;stroke-miterlimit:4;stroke-dasharray:none;stroke-opacity:1"
       d="M 82.166514,11.978014 C 82.189878,12.016806 82.218118,12.061345 82.240862,12.100504 C 82.214326,12.059093 82.193933,12.019057 82.166514,11.978014 z M 82.263706,12.119853 C 82.916722,13.249754 83.306058,14.538083 83.432919,15.924152 C 83.44781,16.087126 83.469667,16.25627 83.4781,16.418084 C 83.467167,14.900784 83.093881,13.425817 82.263706,12.119853 z M 83.4781,16.418084 C 83.481242,16.478769 83.471056,16.531508 83.472948,16.592012 C 83.473595,16.535252 83.478467,16.474768 83.4781,16.418084 z M 83.492559,16.806752 C 83.492598,16.834873 83.479975,16.86671 83.479608,16.894784 C 83.480779,16.866362 83.491641,16.835168 83.492559,16.806752 z M 66.764412,23.580234 C 66.773138,23.604582 66.780964,23.642203 66.79319,23.664021 C 64.528495,27.344661 38.264307,52.534558 22.462069,68.305485 C 24.529054,69.394198 28.298193,72.842608 29.090294,75.161297 L 75.338239,27.243455 C 72.762297,27.18035 68.459859,25.300603 66.764412,23.580234 z "
       id="path3272"
       sodipodi:nodetypes="csccscccsccsccccccc" />
    <path
       style="fill:white;fill-opacity:1;fill-rule:evenodd;stroke:#343434;stroke-width:3.9981389;stroke-linecap:butt;stroke-linejoin:miter;stroke-miterlimit:4;stroke-dasharray:none;stroke-opacity:1"
       d="M 65.558879,59.892567 L 19.942614,13.934781 L 18.604374,9.9848965 L 5.7058396,2.016325 L 2.0038405,5.7453632 L 10.434468,18.214453 L 14.325804,19.592583 L 60.04174,65.910613 L 65.558879,59.892567 z "
       id="path3376"
       sodipodi:nodetypes="ccccccccc"
       inkscape:export-filename="/home/johannes/Desktop/dcpp_pixmaps/path3376.png"
       inkscape:export-xdpi="90"
       inkscape:export-ydpi="90" />
    <path
       style="fill:white;fill-opacity:1;fill-rule:evenodd;stroke:none;stroke-width:0.9650287;stroke-linecap:butt;stroke-linejoin:miter;stroke-miterlimit:4;stroke-dasharray:none;stroke-opacity:1"
       d="M 17.33154,11.04433 L 11.307101,16.940061 L 3.948993,5.4016378 L 5.6440856,3.9946214 L 17.33154,11.04433 z "
       id="path3407"
       sodipodi:nodetypes="ccccc" />
    <path
       style="fill:#ca992e;fill-opacity:1;fill-rule:evenodd;stroke:#343434;stroke-width:4.22634649;stroke-linecap:butt;stroke-linejoin:miter;stroke-miterlimit:4;stroke-dasharray:none;stroke-opacity:1"
       d="M 92.805116,82.919447 C 90.50397,85.40341 94.116662,86.762069 93.017935,87.835497 C 91.919294,88.908904 87.638375,93.091293 86.869107,93.842668 C 86.100132,94.5941 84.520172,91.369389 82.232861,93.532845 C 80.542374,93.227261 79.671544,93.117161 79.671544,93.117161 L 56.608213,69.034728 C 56.608213,69.034728 57.51538,65.301708 54.575245,62.196054 C 51.635144,59.090383 49.482468,59.77018 49.482468,59.77018 C 49.482468,59.77018 48.073611,60.292573 47.123666,59.512573 C 46.173748,58.732599 45.792601,56.542873 45.792601,56.542873 L 57.530787,45.075071 C 57.530787,45.075071 59.645789,45.521962 60.625853,46.557205 C 61.115837,47.0748 60.584858,49.25279 60.61662,50.129649 C 60.665183,51.470704 61.612048,53.341719 62.802125,54.598764 C 65.182263,57.11286 69.254706,56.317291 69.254706,56.317291 L 92.283994,80.581755 L 92.805116,82.919447 z "
       id="path3374"
       sodipodi:nodetypes="csscccscsccsssccc" />
    <path
       style="opacity:0.8;fill:url(#linearGradient3394);fill-opacity:1;fill-rule:evenodd;stroke:black;stroke-width:0.33495331;stroke-linecap:butt;stroke-linejoin:miter;stroke-miterlimit:4;stroke-dasharray:none;stroke-opacity:1"
       d="M 90.328301,83.221151 C 88.151924,85.572682 91.568624,86.85958 90.529607,87.875798 C 89.490396,88.891937 85.441763,92.851466 84.714325,93.562768 C 83.987078,94.274187 82.492893,91.220855 80.329625,93.26902 C 78.73099,92.979529 77.907391,92.875215 77.907391,92.875215 L 56.096023,70.071614 C 56.096023,70.071614 56.953993,66.53729 54.173482,63.59656 C 51.392966,60.655831 49.357027,61.299273 49.357027,61.299273 C 49.357027,61.299273 48.024703,61.793723 47.126336,61.055134 C 46.227965,60.316548 45.867543,58.24331 45.867543,58.24331 L 56.96878,47.386563 C 56.96878,47.386563 58.968998,47.809898 59.895876,48.790137 C 60.359258,49.280261 59.857057,51.342352 59.887093,52.172576 C 59.932991,53.442293 60.828473,55.213875 61.953934,56.404153 C 64.204777,58.784754 68.056401,58.031881 68.056401,58.031881 L 89.835473,81.007834 L 90.328301,83.221151 z "
       id="path3386"
       sodipodi:nodetypes="csscccscsccsssccc" />
    <path
       style="fill:url(#linearGradient3426);fill-opacity:1;fill-rule:evenodd;stroke:none;stroke-width:1.00100005;stroke-linecap:butt;stroke-linejoin:miter;stroke-miterlimit:4;stroke-dasharray:none;stroke-opacity:1"
       d="M 60.92965,47.181496 L 48.148151,59.974819 C 48.148151,59.974819 51.342865,58.829018 54.187928,61.587502 C 57.03306,64.34593 56.687944,69.009197 56.687944,69.009197 L 69.355857,56.263288 C 69.355857,56.263288 64.66715,57.085685 62.308078,54.170968 C 59.948997,51.256268 60.857203,47.18861 60.92965,47.181496 z "
       id="path3417" />
    <path
       style="opacity:1;fill:white;fill-opacity:1;fill-rule:evenodd;stroke:white;stroke-width:2.39023376;stroke-linecap:butt;stroke-linejoin:miter;stroke-miterlimit:4;stroke-dasharray:none;stroke-opacity:1"
       d="M 22.760811,69.089553 C 19.484794,67.857161 16.168099,67.775424 13.251325,68.750952 C 10.334561,69.726454 7.7948457,71.76606 6.3781255,74.623436 C 4.9613918,77.480873 4.9351107,80.636147 5.9937235,83.408395 C 7.0523411,86.180622 9.2229201,88.563652 12.253879,89.933537 C 15.284829,91.303422 18.57989,91.407264 21.496664,90.43174 C 24.413441,89.456229 26.953145,87.41665 28.369862,84.559248 C 29.786618,81.701854 29.812876,78.546532 28.754263,75.774306 C 28.754263,75.774306 26.188539,70.310318 22.760811,69.089553 z M 15.177963,71.300816 L 17.919592,71.561181 L 20.642273,71.634248 L 22.683896,73.363384 L 24.852111,74.945808 L 25.448133,77.483307 L 26.2376,79.975982 L 25.150504,82.37158 L 24.239645,84.831969 L 21.88455,86.156244 L 19.632454,87.660069 L 16.890835,87.399726 L 14.168156,87.32665 L 12.126532,85.597514 L 9.9583264,84.015077 L 9.3623044,81.477587 L 8.5701224,78.958165 L 9.6852435,76.55999 L 10.596083,74.099597 L 12.951187,72.775313 L 15.177963,71.300816 z "
       id="path2299"
       sodipodi:nodetypes="cssssssccccccccccccccccccccccc" />
  </g>
</svg>
